<svg xmlns="http://www.w3.org/2000/svg" width="1328" height="224" viewBox="0 0 1328 224" version="1.1">
	<path d="M 0 112 L 0 224 21 224 C 37.940 224, 42 223.740, 42 222.653 C 42 221.912, 42.948 220.225, 44.106 218.903 C 45.264 217.581, 46.501 215.600, 46.856 214.500 C 47.210 213.400, 47.275 189.325, 47 161 C 46.606 120.404, 46.770 109.024, 47.773 107.250 C 49.468 104.254, 53.491 104.293, 55.477 107.325 C 56.315 108.604, 62.464 114.341, 69.141 120.075 C 85.415 134.049, 98.633 145.381, 103.500 149.531 C 105.700 151.407, 113.401 158.017, 120.614 164.221 C 127.826 170.424, 136.772 177.975, 140.494 181 C 144.216 184.025, 149.002 188.075, 151.131 190 C 155.582 194.024, 158.999 197.019, 175.250 211.137 C 181.713 216.751, 187 221.942, 187 222.673 C 187 223.507, 188.223 224, 190.293 224 C 196.096 224, 196 225.863, 196 113.039 L 196 11.106 193.515 6.433 C 192.149 3.862, 191.275 1.364, 191.574 0.880 C 191.880 0.385, 183.350 -0, 172.059 -0 C 152.596 -0, 152 0.060, 152 2.021 C 152 3.133, 150.813 5.836, 149.363 8.028 C 146.984 11.622, 146.786 12.627, 147.342 18.257 C 147.681 21.691, 148.009 45.598, 148.072 71.383 C 148.165 109.608, 147.938 118.432, 146.843 119.161 C 144.232 120.898, 139.949 118.992, 134.569 113.697 C 131.576 110.752, 123.632 103.652, 116.915 97.921 C 110.198 92.189, 100.382 83.755, 95.101 79.179 C 89.821 74.602, 83.700 69.328, 81.500 67.458 C 79.300 65.589, 71.618 58.983, 64.429 52.779 C 57.239 46.576, 48.341 39.025, 44.654 36 C 40.966 32.975, 36.227 28.925, 34.120 27 C 32.014 25.075, 28.140 21.700, 25.511 19.500 C 22.882 17.300, 19.329 14.127, 17.616 12.449 C 15.902 10.772, 13.205 8.586, 11.623 7.593 C 10.041 6.600, 8.255 4.485, 7.654 2.894 C 6.755 0.512, 5.981 0, 3.281 0 L 0 0 0 112 M 321 1.905 C 321 2.953, 319.468 5.645, 317.594 7.887 C 315.721 10.129, 312.995 15.088, 311.535 18.908 C 310.075 22.728, 308.250 26.378, 307.478 27.018 C 306.707 27.658, 305.141 30.680, 303.999 33.733 C 302.856 36.786, 301.058 40.382, 300.002 41.725 C 298.946 43.068, 297.154 46.646, 296.019 49.678 C 294.885 52.709, 292.897 56.610, 291.602 58.345 C 290.307 60.080, 288.686 63.300, 288 65.500 C 287.314 67.700, 285.658 70.966, 284.320 72.757 C 282.982 74.548, 281.006 78.577, 279.928 81.709 C 278.850 84.842, 277.077 88.353, 275.988 89.513 C 274.899 90.672, 273.270 93.843, 272.369 96.560 C 271.468 99.277, 269.685 102.907, 268.408 104.628 C 267.130 106.348, 265.229 110.007, 264.183 112.760 C 263.138 115.512, 261.154 119.280, 259.776 121.132 C 258.397 122.984, 256.598 126.525, 255.778 129 C 254.958 131.475, 253.127 135.206, 251.710 137.291 C 250.293 139.377, 248.394 143.309, 247.490 146.030 C 246.586 148.750, 245.432 151.233, 244.925 151.546 C 244.418 151.860, 240.378 159.402, 235.946 168.308 C 231.515 177.214, 227.251 185.625, 226.471 187 C 225.691 188.375, 223.981 191.750, 222.671 194.500 C 221.360 197.250, 218.623 202.528, 216.588 206.230 C 212.899 212.938, 212.892 212.976, 214.171 218.480 L 215.455 224 235.727 224 C 253.307 224, 256 223.796, 256 222.461 C 256 221.615, 257.791 219.059, 259.979 216.781 C 262.311 214.355, 264.651 210.540, 265.630 207.570 C 266.549 204.781, 268.356 200.937, 269.644 199.027 C 270.933 197.117, 272.736 193.292, 273.652 190.527 C 274.567 187.762, 276.360 183.919, 277.635 181.986 C 278.910 180.053, 280.608 176.297, 281.408 173.639 C 282.208 170.981, 283.947 167.162, 285.273 165.153 C 286.599 163.144, 288.433 159.238, 289.348 156.473 C 290.264 153.708, 292.067 149.883, 293.356 147.973 C 294.644 146.063, 296.444 142.238, 297.356 139.473 C 298.267 136.708, 300.068 132.883, 301.358 130.973 C 302.647 129.063, 304.273 125.700, 304.970 123.500 C 305.667 121.300, 307.480 117.250, 308.998 114.500 C 310.516 111.750, 312.552 107.054, 313.522 104.064 C 315.481 98.022, 320.315 92.768, 323.500 93.217 C 324.961 93.424, 325.965 94.983, 327.225 99 C 328.174 102.025, 330.473 107.650, 332.335 111.500 C 334.197 115.350, 337.541 122.325, 339.765 127 C 345.108 138.229, 353.151 155.062, 361.982 173.500 C 365.933 181.750, 371.196 192.775, 373.677 198 C 380.170 211.672, 380.936 213.046, 384.651 217.668 C 386.493 219.961, 388 222.323, 388 222.918 C 388 223.661, 394.855 224, 409.869 224 L 431.738 224 432.358 220.250 C 433.573 212.899, 433.113 210.198, 430.052 206.713 C 428.431 204.866, 426.164 200.841, 425.015 197.769 C 423.865 194.696, 422.283 191.650, 421.500 191 C 420.717 190.350, 419.138 187.312, 417.992 184.249 C 416.846 181.186, 414.992 177.393, 413.872 175.821 C 412.752 174.248, 410.762 170.220, 409.449 166.871 C 408.137 163.521, 406.533 160.143, 405.887 159.363 C 404.836 158.098, 368.249 85.976, 362.328 73.500 C 361.023 70.750, 359.207 67.150, 358.293 65.500 C 357.379 63.850, 355.577 60.250, 354.289 57.500 C 353.001 54.750, 351.292 51.375, 350.491 50 C 349.691 48.625, 347.237 43.900, 345.038 39.500 C 342.840 35.100, 340.631 30.825, 340.130 30 C 336.779 24.482, 327 3.622, 327 1.992 C 327 0.445, 326.329 0, 324 0 C 321.716 0, 321 0.455, 321 1.905 M 454.965 2.750 C 454.945 4.263, 454.286 6.625, 453.500 8 C 452.288 10.121, 452.065 25.928, 452.035 112.249 L 452 213.999 454.750 218.985 L 457.500 223.971 474.250 223.986 C 484.241 223.994, 491 223.614, 491 223.044 C 491 222.519, 492.125 220.431, 493.500 218.405 L 496 214.721 496 189.360 C 496 157.580, 494.858 159.638, 512.210 160.150 L 524.216 160.504 533.358 170.295 C 538.386 175.679, 544.525 182.369, 547 185.160 C 549.475 187.951, 553.075 191.939, 555 194.022 C 556.925 196.106, 560.750 200.419, 563.500 203.608 C 566.250 206.797, 571.813 212.690, 575.862 216.703 L 583.224 224 606.612 224 L 630 224 630 218.288 C 630 212.678, 629.905 212.487, 624.645 207.538 C 621.700 204.767, 614.388 197.096, 608.395 190.491 C 602.403 183.887, 596.452 177.362, 595.171 175.991 C 593.890 174.621, 589.502 169.923, 585.421 165.552 C 581.339 161.180, 578 157.088, 578 156.457 C 578 155.219, 581.181 152, 582.404 152 C 582.814 152, 586.239 150.001, 590.016 147.558 C 601.418 140.182, 613.356 126.682, 617.100 116.930 C 618.066 114.416, 619.755 110.816, 620.856 108.930 C 624.730 102.288, 626.572 85.026, 625.028 69.827 C 624.087 60.559, 623.275 57.227, 620.562 51.500 C 618.738 47.650, 616.992 43.743, 616.681 42.818 C 615.646 39.743, 605.343 26.567, 600.277 21.843 C 597.531 19.281, 593.503 16.277, 591.325 15.166 C 589.148 14.055, 586.776 12.435, 586.055 11.566 C 585.334 10.697, 581.020 8.850, 576.468 7.462 C 568.231 4.949, 565.244 3.032, 566.473 1.044 C 566.918 0.323, 549.745 0, 511.059 0 L 455 0 454.965 2.750 M 914.404 11.922 C 912.152 12.291, 908.070 14.030, 905.334 15.786 C 902.598 17.542, 898.970 19.256, 897.272 19.596 C 895.575 19.935, 892.706 21.740, 890.897 23.606 C 889.088 25.473, 887.011 27, 886.282 27 C 885.553 27, 884.433 28.238, 883.792 29.750 C 883.151 31.262, 881.414 33.850, 879.932 35.500 C 878.450 37.150, 876.677 40.300, 875.992 42.500 C 875.307 44.700, 873.502 49.200, 871.981 52.500 C 869.530 57.818, 869.076 60.490, 867.984 76 C 867.176 87.489, 866.960 103.633, 867.357 123 C 868.148 161.557, 868.846 169.104, 872.213 175.500 C 873.660 178.250, 875.143 182.283, 875.507 184.462 C 876.026 187.561, 877.908 190.327, 884.151 197.165 C 888.540 201.973, 893.114 206.214, 894.316 206.590 C 895.517 206.966, 897.758 208.325, 899.295 209.611 C 902.873 212.601, 906.829 213.571, 921 214.934 C 938.732 216.639, 967 213.504, 967 209.832 C 967 209.454, 969.708 207.500, 973.017 205.490 C 976.327 203.479, 979.663 200.634, 980.432 199.167 C 981.200 197.700, 983.451 194.941, 985.434 193.035 C 987.546 191.005, 989.480 187.899, 990.104 185.535 C 990.690 183.316, 992.446 179.475, 994.006 177 C 996.728 172.684, 996.893 171.702, 998.042 153 C 999.146 135.032, 998.977 123.709, 997.549 119.988 C 997.076 118.756, 993.755 118.460, 978.239 118.268 C 967.932 118.140, 957.025 117.776, 954 117.459 C 949.864 117.025, 948.004 117.269, 946.500 118.441 L 944.500 120 946.500 121.563 C 947.826 122.600, 949.510 122.920, 951.500 122.512 C 953.150 122.174, 960.490 121.770, 967.811 121.615 C 979.769 121.360, 981.598 121.554, 985.811 123.524 C 993.339 127.044, 994.215 128.593, 994.693 139.232 C 995.205 150.634, 993.379 161.376, 988.860 173.552 C 985.159 183.522, 983.415 186.181, 974.365 195.645 C 969.664 200.562, 966.042 203.157, 958.865 206.754 L 949.500 211.448 933.500 211.474 L 917.500 211.500 909 207.592 C 900.195 203.544, 888.982 194.556, 885.985 189.144 C 885.152 187.639, 882.926 184.001, 881.038 181.060 C 878.314 176.814, 877.527 174.454, 877.218 169.606 C 877.005 166.248, 875.710 160.180, 874.342 156.121 C 871.898 148.873, 871.853 148.152, 871.745 115.121 C 871.636 81.865, 871.663 81.397, 874.231 72 C 875.659 66.775, 877.147 59.881, 877.538 56.679 C 878.017 52.756, 879.027 49.933, 880.638 48.019 C 881.952 46.457, 883.696 43.579, 884.512 41.625 C 888.242 32.698, 901.714 22.187, 913.626 18.910 C 930.965 14.140, 934.675 14.103, 951.713 18.530 C 964.033 21.731, 973.989 28.664, 982.183 39.750 C 985.897 44.776, 989.037 46.368, 990.515 43.976 C 992.150 41.330, 989.431 36.821, 981.265 28.636 C 974.718 22.074, 971.640 19.718, 968.562 18.911 C 966.328 18.325, 962.794 16.681, 960.708 15.258 C 958.623 13.835, 954.798 12.321, 952.208 11.895 C 946.540 10.961, 920.148 10.980, 914.404 11.922 M 1187.949 12.450 C 1186.489 13.911, 1186.824 18.609, 1188.487 19.989 C 1189.305 20.668, 1191.034 20.957, 1192.329 20.632 C 1193.624 20.307, 1205.929 20.007, 1219.673 19.965 C 1246.046 19.885, 1249.277 20.347, 1250.696 24.402 C 1251.100 25.556, 1251.447 68.569, 1251.465 119.986 C 1251.498 207.558, 1251.609 213.493, 1253.219 213.803 C 1254.164 213.986, 1255.658 213.731, 1256.538 213.239 C 1257.989 212.426, 1258.129 203.593, 1258.036 118.741 L 1257.933 25.140 1260.036 23.181 C 1263.143 20.287, 1265.996 20, 1291.711 20 C 1310.672 20, 1316.402 19.672, 1321.586 18.291 C 1328.047 16.569, 1330.351 14, 1325.434 14 C 1324.023 14, 1322.062 13.569, 1321.077 13.041 C 1318.658 11.747, 1189.227 11.172, 1187.949 12.450 M 673.680 12.654 C 673.282 13.051, 672.987 57.845, 673.024 112.195 L 673.092 211.014 675.309 212.467 C 677.186 213.697, 685.554 213.887, 730.013 213.709 C 781.334 213.505, 782.500 213.457, 782.500 211.548 C 782.500 209.639, 781.426 209.594, 734.456 209.548 C 690.288 209.504, 686.196 209.358, 683.720 207.736 C 677.311 203.537, 677.724 210.368, 677.607 106.721 C 677.511 22.525, 677.336 12.496, 675.951 12.229 C 675.099 12.065, 674.077 12.256, 673.680 12.654 M 823.582 12.867 C 822.835 14.076, 822.766 211.812, 823.512 213.019 C 824.394 214.447, 828.997 214.222, 829.019 212.750 C 829.040 211.399, 829.034 13.991, 829.013 12.750 C 828.995 11.704, 824.238 11.807, 823.582 12.867 M 1028.501 13.186 C 1028.234 13.909, 1028.125 59.275, 1028.258 114 L 1028.500 213.500 1032.500 213.500 C 1036.465 213.500, 1036.497 213.470, 1036.183 210 C 1036.008 208.075, 1035.783 188.050, 1035.683 165.500 C 1035.481 120.266, 1035.624 119.024, 1041.244 117.065 C 1043.246 116.367, 1061.386 116.001, 1093.899 116.004 C 1141.444 116.007, 1143.634 116.089, 1146.723 117.973 C 1148.496 119.054, 1150.296 121.189, 1150.723 122.719 C 1151.150 124.249, 1151.500 145.193, 1151.500 169.262 C 1151.500 208.603, 1151.663 213.076, 1153.109 213.535 C 1153.994 213.816, 1155.450 213.764, 1156.345 213.421 C 1157.829 212.852, 1157.994 204.136, 1158.236 113.648 C 1158.381 59.117, 1158.339 13.938, 1158.143 13.250 C 1157.685 11.646, 1153.353 11.621, 1152.367 13.216 C 1151.953 13.884, 1151.589 34.022, 1151.558 57.966 C 1151.513 91.410, 1151.203 102.019, 1150.220 103.740 C 1147.236 108.963, 1146.825 109.002, 1095.300 108.976 C 1069.010 108.963, 1045.745 108.545, 1043.599 108.047 C 1041.454 107.550, 1038.754 106.198, 1037.599 105.044 C 1035.530 102.974, 1035.500 102.302, 1035.469 57.722 L 1035.438 12.500 1032.212 12.186 C 1030.218 11.992, 1028.801 12.374, 1028.501 13.186 M 497.571 42.571 C 496.200 43.943, 496 48.819, 496 80.916 C 496 116.027, 496.088 117.769, 497.938 119.444 C 499.677 121.018, 502.234 121.183, 522.872 121.057 C 535.521 120.980, 548.419 120.501, 551.535 119.994 C 562.544 118.202, 572.168 110.497, 578.190 98.653 C 582.157 90.851, 582.339 90.091, 582.413 81 C 582.489 71.725, 582.390 71.300, 578.206 63.054 C 575.848 58.409, 573.464 54.059, 572.907 53.388 C 570.903 50.974, 558.184 42.913, 554.884 41.967 C 553.030 41.435, 539.730 41, 525.328 41 C 502.857 41, 498.920 41.223, 497.571 42.571" stroke="none" fill="currentColor" fill-rule="evenodd"/>
</svg>